<?xml version="1.0" encoding="utf-8"?>
<!-- Generator: Adobe Illustrator 21.0.2, SVG Export Plug-In . SVG Version: 6.00 Build 0)  -->
<!DOCTYPE svg PUBLIC "-//W3C//DTD SVG 1.1//EN" "http://www.w3.org/Graphics/SVG/1.1/DTD/svg11.dtd">
<svg version="1.1" id="Layer_1" xmlns="http://www.w3.org/2000/svg" xmlns:xlink="http://www.w3.org/1999/xlink" x="0px" y="0px"
	 viewBox="0 0 180 220" style="enable-background:new 0 0 180 220;" xml:space="preserve">
<style type="text/css">
	.st0{display:none;}
	.st1{display:inline;opacity:0.1;fill:#97A6B4;}
	.st2{display:inline;opacity:0.2;fill:#97A6B4;}
	.st3{fill:#97A6B4;}
	.st4{fill:none;stroke:#97A6B4;stroke-width:12;stroke-miterlimit:10;}
	.st5{opacity:0.9;}
	.st6{fill:#0087FF;}
	.st7{fill:#06CE40;}
	.st8{fill:#EA3B5D;}
	.st9{opacity:0.15;fill:#FFFFFF;}
	.st10{opacity:5.000000e-02;}
</style>
<path class="st6" d="M150.9,109.1L94.4,52.6c-1.2-1.2-2.8-1.8-4.4-1.7c-1.6,0-3.2,0.5-4.4,1.7l-56.5,56.5c-2.3,2.3-2.3,6.2,0,8.5
	l19.8,19.8c2.3,2.3,6.2,2.3,8.5,0l12.1-12.1V208c0,3.3,2.7,6,6,6h28c3.3,0,6-2.7,6-6v-83.7l13.1,13.1c2.3,2.3,6.2,2.3,8.5,0
	l19.8-19.8C153.2,115.3,153.2,111.4,150.9,109.1z"/>
</svg>
