<?xml version="1.0" encoding="utf-8"?>
<!-- Generator: Adobe Illustrator 21.0.2, SVG Export Plug-In . SVG Version: 6.00 Build 0)  -->
<!DOCTYPE svg PUBLIC "-//W3C//DTD SVG 1.1//EN" "http://www.w3.org/Graphics/SVG/1.1/DTD/svg11.dtd">
<svg version="1.1" id="Layer_1" xmlns="http://www.w3.org/2000/svg" xmlns:xlink="http://www.w3.org/1999/xlink" x="0px" y="0px"
	 viewBox="0 0 372 72" style="enable-background:new 0 0 372 72;" xml:space="preserve">
<style type="text/css">
	.st0{fill:#FFFFFF;}
	.st1{opacity:0.5;fill:#FFFFFF;}
	.st2{opacity:0.75;fill:#FFFFFF;}
</style>
<g>
	<path class="st0" d="M1.8,35.5c0-3.5,0.6-6.6,1.7-9.3c1.1-2.7,2.6-5,4.5-6.8c1.9-1.9,4-3.3,6.5-4.3c2.5-1,5-1.5,7.7-1.5
		c2.6,0,5,0.5,7.2,1.6c2.2,1.1,4,2.4,5.5,3.9l-6,6.8c-1-0.9-2-1.6-3-2.1c-1-0.5-2.2-0.7-3.5-0.7c-1.2,0-2.4,0.3-3.6,0.8
		c-1.1,0.6-2.1,1.3-2.9,2.4c-0.8,1-1.5,2.3-2,3.8c-0.5,1.5-0.7,3.2-0.7,5.1c0,3.9,0.8,6.9,2.5,9c1.6,2.1,3.8,3.1,6.5,3.1
		c1.6,0,3-0.3,4.2-0.9c1.2-0.6,2.2-1.4,3.1-2.4l6,6.7c-1.8,2-3.8,3.6-6.1,4.6c-2.3,1-4.7,1.5-7.3,1.5c-2.7,0-5.3-0.4-7.7-1.3
		s-4.6-2.2-6.4-4c-1.8-1.8-3.3-4-4.4-6.7C2.3,42.2,1.8,39.1,1.8,35.5z"/>
	<path class="st0" d="M40.6,11.5h11v33.7c0,1.1,0.2,1.9,0.6,2.2c0.4,0.4,0.8,0.6,1.2,0.6c0.2,0,0.4,0,0.5,0c0.1,0,0.4,0,0.6-0.1
		l1.3,8.1c-0.6,0.3-1.3,0.5-2.2,0.6c-0.9,0.2-1.9,0.3-3.2,0.3c-1.9,0-3.4-0.3-4.7-0.9c-1.3-0.6-2.3-1.4-3-2.5
		c-0.8-1.1-1.3-2.3-1.6-3.8c-0.3-1.5-0.5-3.1-0.5-4.9V11.5z"/>
	<path class="st0" d="M59.6,46.9c0-3.3,1.4-5.9,4.1-7.8c2.7-1.9,7.2-3.2,13.3-3.8c-0.3-2.2-1.8-3.3-4.5-3.3c-1.2,0-2.4,0.2-3.6,0.7
		c-1.3,0.4-2.8,1.1-4.4,2l-3.8-7.2c2.3-1.4,4.5-2.4,6.8-3.1c2.3-0.7,4.7-1.1,7.2-1.1c4.1,0,7.4,1.2,9.8,3.6C86.8,29.2,88,33,88,38.2
		V56h-9l-0.8-3.1H78c-1.3,1.2-2.6,2.1-4.1,2.8c-1.4,0.7-3,1.1-4.8,1.1c-1.5,0-2.8-0.3-4-0.8c-1.2-0.5-2.2-1.2-3-2.1
		c-0.8-0.9-1.5-1.9-1.9-3.1C59.8,49.5,59.6,48.2,59.6,46.9z M70.1,46c0,1.5,1,2.3,2.9,2.3c0.9,0,1.6-0.2,2.2-0.6
		c0.6-0.4,1.2-0.9,1.8-1.6v-4.4c-2.6,0.4-4.5,1-5.4,1.7C70.6,44.3,70.1,45.1,70.1,46z"/>
	<path class="st0" d="M101.4,20c-1.8,0-3.3-0.5-4.4-1.5c-1.2-1-1.7-2.3-1.7-4c0-1.6,0.6-2.9,1.7-4c1.2-1,2.6-1.5,4.4-1.5
		s3.3,0.5,4.4,1.5c1.2,1,1.7,2.3,1.7,4c0,1.6-0.6,2.9-1.7,4C104.7,19.5,103.2,20,101.4,20z M95.9,24h11v32h-11V24z"/>
	<path class="st0" d="M115.1,24h9l0.8,3.9h0.3c1.3-1.2,2.7-2.3,4.1-3.3c1.5-0.9,3.3-1.4,5.5-1.4c2.2,0,4,0.4,5.4,1.3
		c1.4,0.9,2.6,2.1,3.4,3.8c1.3-1.4,2.8-2.6,4.3-3.6c1.5-1,3.4-1.5,5.6-1.5c3.5,0,6.1,1.2,7.7,3.6c1.6,2.4,2.4,5.5,2.4,9.5V56h-11
		V37.7c0-2-0.3-3.4-0.8-4.1c-0.5-0.7-1.3-1-2.4-1c-1.4,0-2.9,0.8-4.5,2.4v21h-11V37.7c0-2-0.3-3.4-0.8-4.1c-0.5-0.7-1.3-1-2.4-1
		c-1.4,0-2.9,0.8-4.5,2.4v21h-11V24z"/>
	<path class="st0" d="M171.3,11.5h11v33.7c0,1.1,0.2,1.9,0.6,2.2c0.4,0.4,0.8,0.6,1.2,0.6c0.2,0,0.4,0,0.5,0c0.1,0,0.4,0,0.6-0.1
		l1.3,8.1c-0.6,0.3-1.3,0.5-2.2,0.6c-0.9,0.2-1.9,0.3-3.2,0.3c-1.9,0-3.4-0.3-4.7-0.9c-1.3-0.6-2.3-1.4-3-2.5
		c-0.8-1.1-1.3-2.3-1.6-3.8c-0.3-1.5-0.5-3.1-0.5-4.9V11.5z"/>
	<path class="st0" d="M189.6,40c0-2.6,0.4-4.9,1.3-7c0.9-2.1,2-3.8,3.5-5.3c1.4-1.5,3.1-2.6,4.9-3.3c1.8-0.8,3.7-1.2,5.7-1.2
		c2.3,0,4.4,0.4,6.1,1.2c1.7,0.8,3.2,1.9,4.4,3.3c1.2,1.4,2,3.1,2.6,4.9c0.6,1.9,0.9,3.9,0.9,6c0,1-0.1,1.9-0.2,2.6
		c-0.1,0.8-0.2,1.3-0.3,1.7h-18.2c0.5,2,1.4,3.5,2.8,4.2c1.3,0.8,2.9,1.2,4.7,1.2c1.1,0,2.2-0.2,3.2-0.5c1-0.3,2.1-0.8,3.3-1.4
		l3.6,6.5c-1.8,1.2-3.7,2.2-5.8,2.8s-4.1,0.9-5.9,0.9c-2.3,0-4.5-0.4-6.5-1.1c-2-0.7-3.7-1.8-5.2-3.3c-1.5-1.4-2.6-3.2-3.5-5.3
		C190,45,189.6,42.6,189.6,40z M209.6,36.4c0-1.4-0.3-2.5-0.9-3.5c-0.6-0.9-1.8-1.4-3.4-1.4c-1.2,0-2.3,0.4-3.2,1.1
		c-0.9,0.7-1.5,2-1.9,3.8H209.6z"/>
	<path class="st0" d="M227.8,45.5c2.9,2.1,5.5,3.2,7.8,3.2c1.2,0,2-0.2,2.5-0.5c0.5-0.3,0.7-0.8,0.7-1.4c0-0.4-0.2-0.8-0.5-1.1
		c-0.3-0.3-0.8-0.6-1.4-0.9c-0.6-0.3-1.2-0.5-2-0.8c-0.7-0.3-1.5-0.6-2.3-0.9c-0.9-0.4-1.9-0.8-2.8-1.4c-1-0.5-1.8-1.2-2.6-2
		c-0.8-0.8-1.4-1.7-1.9-2.7c-0.5-1-0.7-2.2-0.7-3.5c0-1.6,0.3-3,0.9-4.3c0.6-1.3,1.5-2.4,2.6-3.3c1.1-0.9,2.4-1.6,4-2.1
		c1.6-0.5,3.3-0.7,5.2-0.7c2.6,0,4.9,0.4,6.8,1.3c1.9,0.9,3.6,1.8,5,2.9l-4.9,6.5c-1.2-0.9-2.3-1.5-3.4-2c-1.1-0.5-2.2-0.7-3.1-0.7
		c-1.9,0-2.8,0.6-2.8,1.8c0,0.4,0.2,0.8,0.5,1.1c0.3,0.3,0.8,0.6,1.3,0.8c0.6,0.3,1.2,0.5,1.9,0.7c0.7,0.2,1.5,0.5,2.3,0.8
		c0.9,0.3,1.9,0.8,2.9,1.3c1,0.5,1.9,1.1,2.7,1.9c0.8,0.7,1.4,1.6,1.9,2.7c0.5,1,0.7,2.3,0.7,3.7c0,1.5-0.3,2.9-0.9,4.2
		c-0.6,1.3-1.5,2.4-2.6,3.4c-1.2,1-2.6,1.7-4.3,2.2c-1.7,0.5-3.7,0.8-5.9,0.8c-2,0-4.2-0.4-6.5-1.2c-2.3-0.8-4.3-1.9-5.9-3.3
		L227.8,45.5z"/>
	<path class="st0" d="M257.5,45.5c2.9,2.1,5.5,3.2,7.8,3.2c1.2,0,2-0.2,2.5-0.5c0.5-0.3,0.7-0.8,0.7-1.4c0-0.4-0.2-0.8-0.5-1.1
		c-0.3-0.3-0.8-0.6-1.4-0.9c-0.6-0.3-1.2-0.5-2-0.8c-0.7-0.3-1.5-0.6-2.3-0.9c-0.9-0.4-1.9-0.8-2.8-1.4c-1-0.5-1.8-1.2-2.6-2
		c-0.8-0.8-1.4-1.7-1.9-2.7c-0.5-1-0.7-2.2-0.7-3.5c0-1.6,0.3-3,0.9-4.3c0.6-1.3,1.5-2.4,2.6-3.3c1.1-0.9,2.4-1.6,4-2.1
		c1.6-0.5,3.3-0.7,5.2-0.7c2.6,0,4.9,0.4,6.8,1.3c1.9,0.9,3.6,1.8,5,2.9l-4.9,6.5c-1.2-0.9-2.3-1.5-3.4-2c-1.1-0.5-2.2-0.7-3.1-0.7
		c-1.9,0-2.8,0.6-2.8,1.8c0,0.4,0.2,0.8,0.5,1.1c0.3,0.3,0.8,0.6,1.3,0.8c0.6,0.3,1.2,0.5,1.9,0.7c0.7,0.2,1.5,0.5,2.3,0.8
		c0.9,0.3,1.9,0.8,2.9,1.3c1,0.5,1.9,1.1,2.7,1.9c0.8,0.7,1.4,1.6,1.9,2.7c0.5,1,0.7,2.3,0.7,3.7c0,1.5-0.3,2.9-0.9,4.2
		c-0.6,1.3-1.5,2.4-2.6,3.4c-1.2,1-2.6,1.7-4.3,2.2c-1.7,0.5-3.7,0.8-5.9,0.8c-2,0-4.2-0.4-6.5-1.2c-2.3-0.8-4.3-1.9-5.9-3.3
		L257.5,45.5z"/>
</g>
<path class="st1" d="M367,52.5l-0.4-4.5l-12.2-12.2c0,2.4-0.4,4.8-1.2,7.1l9.2,9.2L367,52.5z"/>
<path class="st1" d="M314.8,29.1l-9.2-9.2l-4.5-0.4l0.4,4.5l12.2,12.2C313.6,33.8,314,31.4,314.8,29.1z"/>
<path class="st1" d="M340.9,16.8l9.2-9.2l0.4-4.5L346,3.4l-12.2,12.2C336.2,15.6,338.6,16,340.9,16.8z"/>
<path class="st1" d="M327.1,55.2l-9.2,9.2l-0.4,4.5l4.5-0.4l12.2-12.2C331.8,56.4,329.4,56,327.1,55.2z"/>
<path class="st2" d="M344.3,25.7c-2.3-2.3-5.2-3.7-8.3-4.1c-4.4-0.6-9,0.8-12.4,4.1c-2.3,2.3-3.7,5.2-4.1,8.3
	c-0.6,4.4,0.8,9,4.1,12.4c2.3,2.3,5.2,3.7,8.3,4.1c4.4,0.6,9-0.8,12.4-4.1c2.3-2.3,3.7-5.2,4.1-8.3
	C349.1,33.7,347.7,29.1,344.3,25.7z M340.2,42.2c-3.4,3.4-9,3.4-12.4,0c-3.4-3.4-3.4-9,0-12.4c3.4-3.4,9-3.4,12.4,0
	C343.6,33.2,343.6,38.8,340.2,42.2z"/>
<path class="st1" d="M354.4,35.8l-10.1-10.1c3.4,3.4,4.7,8,4.1,12.4l4.8,4.8C354,40.6,354.4,38.2,354.4,35.8z"/>
<path class="st1" d="M319.6,33.9l-4.8-4.8c-0.8,2.3-1.2,4.7-1.2,7.1l10.1,10.1C320.3,42.9,318.9,38.3,319.6,33.9z"/>
<path class="st1" d="M336.1,21.6l4.8-4.8c-2.3-0.8-4.7-1.2-7.1-1.2l-10.1,10.1C327.1,22.3,331.7,20.9,336.1,21.6z"/>
<path class="st1" d="M331.9,50.4l-4.8,4.8c2.3,0.8,4.7,1.2,7.1,1.2l10.1-10.1C340.9,49.7,336.3,51.1,331.9,50.4z"/>
</svg>
