<?xml version="1.0" encoding="utf-8"?>
<!-- Generator: Adobe Illustrator 21.0.2, SVG Export Plug-In . SVG Version: 6.00 Build 0)  -->
<!DOCTYPE svg PUBLIC "-//W3C//DTD SVG 1.1//EN" "http://www.w3.org/Graphics/SVG/1.1/DTD/svg11.dtd">
<svg version="1.1" id="Layer_1" xmlns="http://www.w3.org/2000/svg" xmlns:xlink="http://www.w3.org/1999/xlink" x="0px" y="0px"
	 viewBox="0 0 180 220" style="enable-background:new 0 0 180 220;" xml:space="preserve">
<style type="text/css">
	.st0{display:none;}
	.st1{display:inline;opacity:0.1;fill:#97A6B4;}
	.st2{display:inline;opacity:0.2;fill:#97A6B4;}
	.st3{fill:#97A6B4;}
	.st4{fill:none;stroke:#97A6B4;stroke-width:12;stroke-miterlimit:10;}
	.st5{opacity:0.9;}
	.st6{fill:#0087FF;}
	.st7{fill:#06CE40;}
	.st8{fill:#EA3B5D;}
	.st9{opacity:0.15;fill:#FFFFFF;}
	.st10{opacity:5.000000e-02;}
</style>
<path class="st8" d="M156.5,100.8c2.3-2.3,2.3-6.2,0-8.5l-19.8-19.8c-2.3-2.3-6.2-2.3-8.5,0l-33.9,33.9c-2.3,2.3-6.2,2.3-8.5,0
	L51.8,72.5c-2.3-2.3-6.2-2.3-8.5,0L23.5,92.3c-2.3,2.3-2.3,6.2,0,8.5l33.9,33.9c2.3,2.3,2.3,6.2,0,8.5l-33.9,33.9
	c-2.3,2.3-2.3,6.2,0,8.5l19.8,19.8c2.3,2.3,6.2,2.3,8.5,0l33.9-33.9c2.3-2.3,6.2-2.3,8.5,0l33.9,33.9c2.3,2.3,6.2,2.3,8.5,0
	l19.8-19.8c2.3-2.3,2.3-6.2,0-8.5l-33.9-33.9c-2.3-2.3-2.3-6.2,0-8.5L156.5,100.8z"/>
</svg>
