<?xml version="1.0" encoding="utf-8"?>
<!-- Generator: Adobe Illustrator 21.0.2, SVG Export Plug-In . SVG Version: 6.00 Build 0)  -->
<!DOCTYPE svg PUBLIC "-//W3C//DTD SVG 1.1//EN" "http://www.w3.org/Graphics/SVG/1.1/DTD/svg11.dtd">
<svg version="1.1" id="Layer_1" xmlns="http://www.w3.org/2000/svg" xmlns:xlink="http://www.w3.org/1999/xlink" x="0px" y="0px"
	 viewBox="0 0 180 220" style="enable-background:new 0 0 180 220;" xml:space="preserve">
<style type="text/css">
	.st0{display:none;}
	.st1{display:inline;opacity:0.1;fill:#97A6B4;}
	.st2{display:inline;opacity:0.2;fill:#97A6B4;}
	.st3{fill:#97A6B4;}
	.st4{fill:none;stroke:#97A6B4;stroke-width:12;stroke-miterlimit:10;}
	.st5{opacity:0.9;}
	.st6{fill:#0087FF;}
	.st7{fill:#06CE40;}
	.st8{fill:#EA3B5D;}
	.st9{opacity:0.15;fill:#FFFFFF;}
	.st10{opacity:5.000000e-02;}
</style>
<g>
	<g>
		<g>
			<path class="st3" d="M111.9,20.9c-0.8-0.8-2.3-1.4-3.4-1.4h-86c-1.1,0-2,0.9-2,2v177c0,1.1,0.9,2,2,2h135c1.1,0,2-0.9,2-2v-128
				c0-1.1-0.6-2.6-1.4-3.4L111.9,20.9z M115.5,43.5c0-1.1,0.6-1.4,1.4-0.6l20.2,20.2c0.8,0.8,0.5,1.4-0.6,1.4h-19c-1.1,0-2-0.9-2-2
				V43.5z M147.5,186.5c0,1.1-0.9,2-2,2h-111c-1.1,0-2-0.9-2-2v-153c0-1.1,0.9-2,2-2h67c1.1,0,2,0.9,2,2v29c0,1.1,0,2.9,0,4v1
				c0,1.1,0,2.9,0,4v3c0,1.1,0.9,2,2,2h40c1.1,0,2,0.9,2,2V186.5z"/>
		</g>
		<g>
			<path class="st3" d="M88.5,43.5c0-1.1-0.9-2-2-2h-40c-1.1,0-2,0.9-2,2v8c0,1.1,0.9,2,2,2h40c1.1,0,2-0.9,2-2V43.5z"/>
		</g>
		<g>
			<path class="st3" d="M78.5,63.5c0-1.1-0.9-2-2-2h-30c-1.1,0-2,0.9-2,2v8c0,1.1,0.9,2,2,2h30c1.1,0,2-0.9,2-2V63.5z"/>
		</g>
		<g>
			<path class="st3" d="M91.5,98.5c0-1.1-0.9-2-2-2h-43c-1.1,0-2,0.9-2,2v8c0,1.1,0.9,2,2,2h43c1.1,0,2-0.9,2-2V98.5z"/>
		</g>
		<g>
			<path class="st3" d="M44.5,126.5c0,1.1,0.9,2,2,2h88c1.1,0,2-0.9,2-2v-8c0-1.1-0.9-2-2-2h-88c-1.1,0-2,0.9-2,2V126.5z"/>
		</g>
		<g>
			<path class="st3" d="M126.5,138.5c0-1.1-0.9-2-2-2h-78c-1.1,0-2,0.9-2,2v8c0,1.1,0.9,2,2,2h78c1.1,0,2-0.9,2-2V138.5z"/>
		</g>
		<g>
			<path class="st3" d="M44.5,166.5c0,1.1,0.9,2,2,2h88c1.1,0,2-0.9,2-2v-8c0-1.1-0.9-2-2-2h-88c-1.1,0-2,0.9-2,2V166.5z"/>
		</g>
	</g>
</g>
</svg>
