<?xml version="1.0" encoding="utf-8"?>
<!-- Generator: Adobe Illustrator 21.0.2, SVG Export Plug-In . SVG Version: 6.00 Build 0)  -->
<!DOCTYPE svg PUBLIC "-//W3C//DTD SVG 1.1//EN" "http://www.w3.org/Graphics/SVG/1.1/DTD/svg11.dtd">
<svg version="1.1" id="Layer_1" xmlns="http://www.w3.org/2000/svg" xmlns:xlink="http://www.w3.org/1999/xlink" x="0px" y="0px"
   viewBox="0 0 448 120" style="enable-background:new 0 0 448 120;" xml:space="preserve">
<style type="text/css">
  .st0{fill:#123B5D;}
  .st1{fill:#0087FF;}
  .st2{fill:#54BF73;}
  .st3{opacity:0.35;}
  .st4{fill:#FFFFFF;}
</style>
<g>
  <path class="st0" d="M5.8,59.5c0-3.5,0.6-6.6,1.7-9.3c1.1-2.7,2.6-5,4.5-6.8c1.9-1.9,4-3.3,6.5-4.3c2.5-1,5-1.5,7.7-1.5
    c2.6,0,5,0.5,7.2,1.6c2.2,1.1,4,2.4,5.5,3.9l-6,6.8c-1-0.9-2-1.6-3-2.1c-1-0.5-2.2-0.7-3.5-0.7c-1.2,0-2.4,0.3-3.6,0.8
    c-1.1,0.6-2.1,1.3-2.9,2.4c-0.8,1-1.5,2.3-2,3.8c-0.5,1.5-0.7,3.2-0.7,5.1c0,3.9,0.8,6.9,2.5,9c1.6,2.1,3.8,3.1,6.5,3.1
    c1.6,0,3-0.3,4.2-0.9c1.2-0.6,2.2-1.4,3.1-2.4l6,6.7c-1.8,2-3.8,3.6-6.1,4.6c-2.3,1-4.7,1.5-7.3,1.5c-2.7,0-5.3-0.4-7.7-1.3
    s-4.6-2.2-6.4-4c-1.8-1.8-3.3-4-4.4-6.7C6.3,66.2,5.8,63.1,5.8,59.5z"/>
  <path class="st0" d="M44.6,35.5h11v33.7c0,1.1,0.2,1.9,0.6,2.2c0.4,0.4,0.8,0.6,1.2,0.6c0.2,0,0.4,0,0.5,0c0.1,0,0.4,0,0.6-0.1
    l1.3,8.1c-0.6,0.3-1.3,0.5-2.2,0.6c-0.9,0.2-1.9,0.3-3.2,0.3c-1.9,0-3.4-0.3-4.7-0.9c-1.3-0.6-2.3-1.4-3-2.5
    c-0.8-1.1-1.3-2.3-1.6-3.8c-0.3-1.5-0.5-3.1-0.5-4.9V35.5z"/>
  <path class="st0" d="M63.6,70.9c0-3.3,1.4-5.9,4.1-7.8c2.7-1.9,7.2-3.2,13.3-3.8c-0.3-2.2-1.8-3.3-4.5-3.3c-1.2,0-2.4,0.2-3.6,0.7
    c-1.3,0.4-2.8,1.1-4.4,2l-3.8-7.2c2.3-1.4,4.5-2.4,6.8-3.1c2.3-0.7,4.7-1.1,7.2-1.1c4.1,0,7.4,1.2,9.8,3.6C90.8,53.2,92,57,92,62.2
    V80h-9l-0.8-3.1H82c-1.3,1.2-2.6,2.1-4.1,2.8c-1.4,0.7-3,1.1-4.8,1.1c-1.5,0-2.8-0.3-4-0.8c-1.2-0.5-2.2-1.2-3-2.1
    c-0.8-0.9-1.5-1.9-1.9-3.1C63.8,73.5,63.6,72.2,63.6,70.9z M74.1,70c0,1.5,1,2.3,2.9,2.3c0.9,0,1.6-0.2,2.2-0.6
    c0.6-0.4,1.2-0.9,1.8-1.6v-4.4c-2.6,0.4-4.5,1-5.4,1.7C74.6,68.3,74.1,69.1,74.1,70z"/>
  <path class="st0" d="M105.4,44c-1.8,0-3.3-0.5-4.4-1.5c-1.2-1-1.7-2.3-1.7-4c0-1.6,0.6-2.9,1.7-4c1.2-1,2.6-1.5,4.4-1.5
    s3.3,0.5,4.4,1.5c1.2,1,1.7,2.3,1.7,4c0,1.6-0.6,2.9-1.7,4C108.7,43.5,107.2,44,105.4,44z M99.9,48h11v32h-11V48z"/>
  <path class="st0" d="M119.1,48h9l0.8,3.9h0.3c1.3-1.2,2.7-2.3,4.1-3.3c1.5-0.9,3.3-1.4,5.5-1.4c2.2,0,4,0.4,5.4,1.3
    c1.4,0.9,2.6,2.1,3.4,3.8c1.3-1.4,2.8-2.6,4.3-3.6c1.5-1,3.4-1.5,5.6-1.5c3.5,0,6.1,1.2,7.7,3.6c1.6,2.4,2.4,5.5,2.4,9.5V80h-11
    V61.7c0-2-0.3-3.4-0.8-4.1c-0.5-0.7-1.3-1-2.4-1c-1.4,0-2.9,0.8-4.5,2.4v21h-11V61.7c0-2-0.3-3.4-0.8-4.1c-0.5-0.7-1.3-1-2.4-1
    c-1.4,0-2.9,0.8-4.5,2.4v21h-11V48z"/>
  <path class="st0" d="M175.3,35.5h11v33.7c0,1.1,0.2,1.9,0.6,2.2c0.4,0.4,0.8,0.6,1.2,0.6c0.2,0,0.4,0,0.5,0c0.1,0,0.4,0,0.6-0.1
    l1.3,8.1c-0.6,0.3-1.3,0.5-2.2,0.6c-0.9,0.2-1.9,0.3-3.2,0.3c-1.9,0-3.4-0.3-4.7-0.9c-1.3-0.6-2.3-1.4-3-2.5
    c-0.8-1.1-1.3-2.3-1.6-3.8c-0.3-1.5-0.5-3.1-0.5-4.9V35.5z"/>
  <path class="st0" d="M193.6,64c0-2.6,0.4-4.9,1.3-7c0.9-2.1,2-3.8,3.5-5.3c1.4-1.5,3.1-2.6,4.9-3.3c1.8-0.8,3.7-1.2,5.7-1.2
    c2.3,0,4.4,0.4,6.1,1.2c1.7,0.8,3.2,1.9,4.4,3.3c1.2,1.4,2,3.1,2.6,4.9c0.6,1.9,0.9,3.9,0.9,6c0,1-0.1,1.9-0.2,2.6
    c-0.1,0.8-0.2,1.3-0.3,1.7h-18.2c0.5,2,1.4,3.5,2.8,4.2c1.3,0.8,2.9,1.2,4.7,1.2c1.1,0,2.2-0.2,3.2-0.5c1-0.3,2.1-0.8,3.3-1.4
    l3.6,6.5c-1.8,1.2-3.7,2.2-5.8,2.8s-4.1,0.9-5.9,0.9c-2.3,0-4.5-0.4-6.5-1.1c-2-0.7-3.7-1.8-5.2-3.3c-1.5-1.4-2.6-3.2-3.5-5.3
    C194,69,193.6,66.6,193.6,64z M213.6,60.4c0-1.4-0.3-2.5-0.9-3.5c-0.6-0.9-1.8-1.4-3.4-1.4c-1.2,0-2.3,0.4-3.2,1.1
    c-0.9,0.7-1.5,2-1.9,3.8H213.6z"/>
  <path class="st0" d="M231.8,69.5c2.9,2.1,5.5,3.2,7.8,3.2c1.2,0,2-0.2,2.5-0.5c0.5-0.3,0.7-0.8,0.7-1.4c0-0.4-0.2-0.8-0.5-1.1
    c-0.3-0.3-0.8-0.6-1.4-0.9c-0.6-0.3-1.2-0.5-2-0.8c-0.7-0.3-1.5-0.6-2.3-0.9c-0.9-0.4-1.9-0.8-2.8-1.4c-1-0.5-1.8-1.2-2.6-2
    c-0.8-0.8-1.4-1.7-1.9-2.7c-0.5-1-0.7-2.2-0.7-3.5c0-1.6,0.3-3,0.9-4.3c0.6-1.3,1.5-2.4,2.6-3.3c1.1-0.9,2.4-1.6,4-2.1
    c1.6-0.5,3.3-0.7,5.2-0.7c2.6,0,4.9,0.4,6.8,1.3c1.9,0.9,3.6,1.8,5,2.9l-4.9,6.5c-1.2-0.9-2.3-1.5-3.4-2c-1.1-0.5-2.2-0.7-3.1-0.7
    c-1.9,0-2.8,0.6-2.8,1.8c0,0.4,0.2,0.8,0.5,1.1c0.3,0.3,0.8,0.6,1.3,0.8c0.6,0.3,1.2,0.5,1.9,0.7c0.7,0.2,1.5,0.5,2.3,0.8
    c0.9,0.3,1.9,0.8,2.9,1.3c1,0.5,1.9,1.1,2.7,1.9c0.8,0.7,1.4,1.6,1.9,2.7c0.5,1,0.7,2.3,0.7,3.7c0,1.5-0.3,2.9-0.9,4.2
    c-0.6,1.3-1.5,2.4-2.6,3.4c-1.2,1-2.6,1.7-4.3,2.2c-1.7,0.5-3.7,0.8-5.9,0.8c-2,0-4.2-0.4-6.5-1.2c-2.3-0.8-4.3-1.9-5.9-3.3
    L231.8,69.5z"/>
  <path class="st0" d="M261.5,69.5c2.9,2.1,5.5,3.2,7.8,3.2c1.2,0,2-0.2,2.5-0.5c0.5-0.3,0.7-0.8,0.7-1.4c0-0.4-0.2-0.8-0.5-1.1
    c-0.3-0.3-0.8-0.6-1.4-0.9c-0.6-0.3-1.2-0.5-2-0.8c-0.7-0.3-1.5-0.6-2.3-0.9c-0.9-0.4-1.9-0.8-2.8-1.4c-1-0.5-1.8-1.2-2.6-2
    c-0.8-0.8-1.4-1.7-1.9-2.7c-0.5-1-0.7-2.2-0.7-3.5c0-1.6,0.3-3,0.9-4.3c0.6-1.3,1.5-2.4,2.6-3.3c1.1-0.9,2.4-1.6,4-2.1
    c1.6-0.5,3.3-0.7,5.2-0.7c2.6,0,4.9,0.4,6.8,1.3c1.9,0.9,3.6,1.8,5,2.9l-4.9,6.5c-1.2-0.9-2.3-1.5-3.4-2c-1.1-0.5-2.2-0.7-3.1-0.7
    c-1.9,0-2.8,0.6-2.8,1.8c0,0.4,0.2,0.8,0.5,1.1c0.3,0.3,0.8,0.6,1.3,0.8c0.6,0.3,1.2,0.5,1.9,0.7c0.7,0.2,1.5,0.5,2.3,0.8
    c0.9,0.3,1.9,0.8,2.9,1.3c1,0.5,1.9,1.1,2.7,1.9c0.8,0.7,1.4,1.6,1.9,2.7c0.5,1,0.7,2.3,0.7,3.7c0,1.5-0.3,2.9-0.9,4.2
    c-0.6,1.3-1.5,2.4-2.6,3.4c-1.2,1-2.6,1.7-4.3,2.2c-1.7,0.5-3.7,0.8-5.9,0.8c-2,0-4.2-0.4-6.5-1.2c-2.3-0.8-4.3-1.9-5.9-3.3
    L261.5,69.5z"/>
</g>
<g>
  <g>
    <polygon class="st1" points="436.8,87.6 398.6,49.4 405.7,42.3 443.9,80.5 444.6,88.3     "/>
  </g>
  <g>
    <polygon class="st1" points="339.2,32.4 377.4,70.6 370.3,77.7 332.1,39.5 331.4,31.7     "/>
  </g>
  <g>
    <polygon class="st2" points="415.6,11.2 377.4,49.4 370.3,42.3 408.5,4.1 416.3,3.4     "/>
  </g>
  <g>
    <polygon class="st2" points="360.4,108.8 398.6,70.6 405.7,77.7 367.5,115.9 359.7,116.6    "/>
  </g>
  <g>
    <path class="st0" d="M370.3,77.7c-9.7-9.7-9.7-25.6,0-35.4c9.7-9.7,25.6-9.7,35.4,0c9.7,9.7,9.7,25.6,0,35.4
      C395.9,87.4,380.1,87.4,370.3,77.7z M398.6,49.4c-5.8-5.8-15.4-5.8-21.2,0s-5.8,15.4,0,21.2c5.8,5.8,15.4,5.8,21.2,0
      C404.5,64.8,404.5,55.2,398.6,49.4z"/>
  </g>
  <g class="st3">
    <path class="st4" d="M363.3,84.7c-13.6-13.6-13.6-35.9,0-49.5s35.9-13.6,49.5,0s13.6,35.9,0,49.5S376.9,98.4,363.3,84.7z
       M405.7,42.3c-9.7-9.7-25.6-9.7-35.4,0c-9.7,9.7-9.7,25.6,0,35.4c9.7,9.7,25.6,9.7,35.4,0C415.4,67.9,415.4,52.1,405.7,42.3z"/>
  </g>
</g>
</svg>